<?xml version="1.0" encoding="iso-8859-1"?>
<!-- Generator: Adobe Illustrator 19.0.0, SVG Export Plug-In . SVG Version: 6.00 Build 0)  -->
<svg version="1.1" id="Capa_1" xmlns="http://www.w3.org/2000/svg" xmlns:xlink="http://www.w3.org/1999/xlink" x="0px"
     y="0px" width="25px" height="25px"
     viewBox="0 0 448.47 448.47" style="enable-background:new 0 0 448.47 448.47;" xml:space="preserve">
<g>
	<path fill="white" d="M219.719,0.025c-4.954-0.291-9.616,2.04-13.112,5.536c-1.457,1.457-35.841,38.463-70.807,90.622
		c-47.496,71.39-71.681,134.621-71.681,187.654c0,40.794,15.444,81.297,42.251,111.602c21.563,24.185,60.317,53.033,122.383,53.033
		c107.231,0,155.601-96.158,155.601-164.634c0-106.648-145.403-270.991-151.813-277.984C229.335,2.356,224.672,0.316,219.719,0.025z
		 M349.386,283.836c0,53.907-37.298,129.668-120.635,129.668c-62.94,0-129.668-45.457-129.668-129.668
		c0-90.33,86.834-200.475,120.343-239.812c13.695,16.609,36.715,45.165,59.443,78.383
		C324.91,190.301,349.386,246.247,349.386,283.836z M222.924,328.127c15.152,0,25.642-3.788,32.053-11.656
		c10.781-13.404,8.742-37.589,6.993-45.748c-2.04-9.324,3.788-18.649,13.404-20.689c9.324-2.04,18.649,3.788,20.689,13.112
		c1.166,4.662,9.616,46.039-13.695,75.178c-13.112,16.609-33.218,25.059-59.443,25.059c-9.616,0-17.483-7.867-17.483-17.483
		S213.017,328.127,222.924,328.127z"/>
</g>
    <g>
</g>
    <g>
</g>
    <g>
</g>
    <g>
</g>
    <g>
</g>
    <g>
</g>
    <g>
</g>
    <g>
</g>
    <g>
</g>
    <g>
</g>
    <g>
</g>
    <g>
</g>
    <g>
</g>
    <g>
</g>
    <g>
</g>
</svg>
