<?xml version="1.0" encoding="iso-8859-1"?>
<!-- Generator: Adobe Illustrator 19.0.0, SVG Export Plug-In . SVG Version: 6.00 Build 0)  -->
<svg version="1.1" id="Capa_1" xmlns="http://www.w3.org/2000/svg" xmlns:xlink="http://www.w3.org/1999/xlink" x="0px"
     y="0px" width="25px" height="25px"
     viewBox="0 0 393.672 393.672" style="enable-background:new 0 0 393.672 393.672;" xml:space="preserve">
<g>
	<path fill="white" d="M358.997,57.115v0.291l34.384,6.119c-0.291,2.331-11.656,60.026-99.946,60.026c-42.834,0-63.814-23.894-82.171-44.582
		c-19.523-22.145-36.715-41.377-80.423-41.377c-80.714,0-95.575,66.728-96.158,69.642c-2.04,9.324-11.073,15.444-20.689,13.695
		c-9.324-1.748-15.444-11.073-13.695-20.397C6.709,66.731,42.549,2.626,130.549,2.626c59.443,0,85.668,29.43,106.648,53.324
		c16.901,19.232,29.139,32.927,55.947,32.927C351.129,88.585,358.705,58.281,358.997,57.115z M358.997,195.233v-0.291
		c-0.291,1.166-7.867,31.47-65.562,31.47c-26.808,0-39.046-13.695-55.946-32.927c-20.98-23.602-46.913-53.324-106.648-53.324
		c-87.999,0-123.84,64.105-130.25,97.906c-1.748,9.324,4.371,18.649,13.695,20.397s18.649-4.371,20.689-13.695
		c0.583-2.914,15.152-69.642,96.158-69.642c43.708,0,60.9,19.232,80.423,41.377c18.649,20.98,39.629,44.582,82.171,44.582
		c88.291,0,99.363-57.403,99.946-60.026L358.997,195.233z M393.38,331.311l-34.384-6.119v-0.291
		c-0.291,1.166-7.867,31.47-65.562,31.47c-26.808,0-39.046-13.695-55.946-32.927c-20.98-23.602-46.913-53.324-106.648-53.324
		c-87.999,0-123.84,64.105-130.25,97.906c-1.748,9.324,4.371,18.649,13.695,20.397c9.324,1.748,18.649-4.371,20.689-13.695
		c0.583-2.914,15.152-69.642,96.158-69.642c43.708,0,60.9,19.232,80.423,41.377c18.649,20.98,39.629,44.582,82.171,44.582
		C381.725,391.046,393.089,333.643,393.38,331.311z"/>
</g>
    <g>
</g>
    <g>
</g>
    <g>
</g>
    <g>
</g>
    <g>
</g>
    <g>
</g>
    <g>
</g>
    <g>
</g>
    <g>
</g>
    <g>
</g>
    <g>
</g>
    <g>
</g>
    <g>
</g>
    <g>
</g>
    <g>
</g>
</svg>
